<?xml version="1.0" encoding="UTF-8"?>
<svg version="1.1" xmlns="http://www.w3.org/2000/svg" width="590" height="592">
<path d="M0 0 C194.7 0 389.4 0 590 0 C590 195.36 590 390.72 590 592 C395.3 592 200.6 592 0 592 C0 396.64 0 201.28 0 0 Z " fill="#000000" transform="translate(0,0)"/>
<path d="M0 0 C65.34 0 130.68 0 198 0 C198 67.32 198 134.64 198 204 C190.08 204 182.16 204 174 204 C174 174.3 174 144.6 174 114 C165.19957031 114.04640625 156.39914062 114.0928125 147.33203125 114.140625 C141.02843785 114.16367822 134.72487634 114.18418033 128.42126751 114.20101547 C120.26715904 114.22313068 112.1132153 114.25115134 103.95922852 114.30175781 C97.50056337 114.34182318 91.04202286 114.36747927 84.58323687 114.37635398 C81.16826251 114.38153573 77.75364449 114.39357781 74.33878517 114.42292023 C70.51186042 114.45216771 66.68566199 114.45594694 62.85864258 114.45410156 C61.74588959 114.46848267 60.6331366 114.48286377 59.48666382 114.49768066 C42.14792882 114.40784138 28.09170542 107.02750168 16 95 C15.44699219 94.48179687 14.89398438 93.96359375 14.32421875 93.4296875 C10.55367176 89.54734532 8.19805033 84.90062358 5.75 80.125 C5.4082373 79.46491943 5.06647461 78.80483887 4.71435547 78.12475586 C-6.61244995 55.10148596 0 20.56438193 0 0 Z " fill="#E05626" transform="translate(252,218)"/>
<path d="M0 0 C20.97961043 -2.23063266 34.9196109 0.15158983 53.04467773 11.21655273 C54.04399071 11.81007538 54.04399071 11.81007538 55.06349182 12.41558838 C56.30781786 13.1630956 57.535664 13.93910049 58.74082947 14.74822998 C60.66343652 15.99789414 60.66343652 15.99789414 64 17 C69.61021477 15.55824638 74.46361335 13.30663211 79.62313843 10.69259644 C103.55122908 -1.17844641 125.49552477 -1.90672037 151.84285784 -1.41951513 C157.49722767 -1.33042704 163.15176875 -1.32365241 168.80673218 -1.30715942 C179.45617405 -1.26409526 190.10354075 -1.1498428 200.75207937 -1.00826657 C212.89986189 -0.85035415 225.0477574 -0.77445398 237.19631505 -0.70453048 C262.1320552 -0.55921751 287.06582177 -0.31096831 312 0 C312 7.92 312 15.84 312 24 C238.74 24 165.48 24 90 24 C90 99.24 90 174.48 90 252 C82.08 252 74.16 252 66 252 C66 176.76 66 101.52 66 24 C44.22 24 22.44 24 0 24 C0 16.08 0 8.16 0 0 Z " fill="#FEFEFE" transform="translate(138,170)"/>
<path d="M0 0 C49.5 0 99 0 150 0 C150 21.78 150 43.56 150 66 C120.41276428 66.12049101 120.41276428 66.12049101 105.7618618 66.1507616 C97.84916129 66.16736345 89.93655602 66.18841607 82.02392578 66.22631836 C75.75756299 66.25632043 69.49127219 66.27559852 63.22483957 66.28226548 C59.91006117 66.28615957 56.59553534 66.29684238 53.28081131 66.31719017 C49.57071108 66.33905363 45.86103348 66.34196312 42.15087891 66.34057617 C41.06474304 66.351362 39.97860718 66.36214783 38.85955811 66.3732605 C26.99696297 66.32545993 18.61560123 63.41266868 10.08984375 55.1484375 C-4.52683255 39.56972942 0 21.35213556 0 0 Z " fill="#000000" transform="translate(276,242)"/>
<path d="M0 0 C7.92 0 15.84 0 24 0 C24 29.7 24 59.4 24 90 C16.08 90 8.16 90 0 90 C0 60.3 0 30.6 0 0 Z " fill="#FFFFFF" transform="translate(426,332)"/>
<path d="M0 0 C25.08 0 50.16 0 76 0 C73.6976665 1.534889 71.76063768 2.63122769 69.26635742 3.72753906 C68.52516159 4.05417542 67.78396576 4.38081177 67.02030945 4.71734619 C63.63950252 6.18494953 60.25622535 7.64646376 56.86791992 9.09667969 C55.08288742 9.8647363 53.30126871 10.64077659 51.52319336 11.42480469 C48.95409254 12.55710415 46.37526714 13.66381503 43.79296875 14.765625 C43.00214401 15.11965393 42.21131927 15.47368286 41.39653015 15.83843994 C37.80912112 17.33919578 35.77295982 18.14399518 31.88354492 17.41943359 C30.9319751 16.95102051 29.98040527 16.48260742 29 16 C27.89672363 15.47067871 26.79344727 14.94135742 25.65673828 14.39599609 C24.45894254 13.77627449 23.26354948 13.15189197 22.0703125 12.5234375 C21.43511688 12.19332672 20.79992126 11.86321594 20.14547729 11.52310181 C18.13648152 10.47783734 16.13072039 9.42653337 14.125 8.375 C12.75541833 7.66105535 11.38562861 6.94750964 10.015625 6.234375 C6.6746601 4.49418696 3.33658046 2.74857888 0 1 C0 0.67 0 0.34 0 0 Z " fill="#E15929" transform="translate(169,170)"/>
<path d="M0 0 C7.92 0 15.84 0 24 0 C24 7.92 24 15.84 24 24 C16.08 24 8.16 24 0 24 C0 16.08 0 8.16 0 0 Z " fill="#FFFFFF" transform="translate(360,368)"/>
<path d="M0 0 C7.92 0 15.84 0 24 0 C24 7.92 24 15.84 24 24 C16.08 24 8.16 24 0 24 C0 16.08 0 8.16 0 0 Z " fill="#E15727" transform="translate(390,344)"/>
</svg>
